<?xml version="1.0" encoding="UTF-8" standalone="no"?>
<svg width="745px" height="144px" viewBox="0 0 745 144" version="1.1" xmlns="http://www.w3.org/2000/svg" xmlns:xlink="http://www.w3.org/1999/xlink" xmlns:sketch="http://www.bohemiancoding.com/sketch/ns">
    <!-- Generator: Sketch 3.0 (7574) - http://www.bohemiancoding.com/sketch -->
    <title>Login</title>
    <description>Created with Sketch.</description>
    <defs>
        <filter x="-50%" y="-50%" width="200%" height="200%" filterUnits="objectBoundingBox" id="filter-1">
            <feGaussianBlur stdDeviation="0" in="SourceGraphic" result="blur"></feGaussianBlur>
        </filter>
        <path d="M107.996658,55.1126634 L79.2346178,26 L76.1258683,26.5959468 L75.4376691,35.1937735 L65.7335577,26 L44.9184056,27.4749135 L36.5932069,31.7676267 L34.5954178,40.1728831 L34.5954178,49.9673447 C34.5954178,49.9673447 47.9312526,61.6619792 46.4248291,61.6619792 C44.9184056,61.6619792 38.1887083,63.738675 38.1887083,63.738675 L31.6838611,68.447165 L30,78.3273349 L30,82.0623966 L56.5312911,108.941181 C84.9791346,107.616327 107.680565,84.075825 107.996658,55.1126634 Z" id="path-2"></path>
        <filter x="-50%" y="-50%" width="200%" height="200%" filterUnits="objectBoundingBox" id="filter-4">
            <feGaussianBlur stdDeviation="21.0897197 -21.0897197" in="SourceGraphic" result="blur"></feGaussianBlur>
        </filter>
    </defs>
    <g id="Welcome" stroke="none" stroke-width="1" fill="none" fill-rule="evenodd" sketch:type="MSPage">
        <g id="Login" sketch:type="MSArtboardGroup" transform="translate(-426.000000, -527.000000)">
            <g sketch:type="MSLayerGroup" transform="translate(426.000000, 527.000000)">
                <g>
                    <rect id="Rectangle-32" fill-opacity="0.742668705" fill="#FFFFFF" filter="url(#filter-1)" sketch:type="MSShapeGroup" x="0" y="0" width="745" height="144" rx="8"></rect>
                    <text id="Connect-with-Google" sketch:type="MSTextLayer" font-family="Avenir Next" font-size="54.5454545" font-weight="420" fill="#000000">
                        <tspan x="180" y="84">Connect with Google</tspan>
                    </text>
                </g>
                <g id="google＋" transform="translate(21.000000, 18.000000)">
                    <ellipse id="Oval-3" fill="#BD172B" sketch:type="MSShapeGroup" cx="54" cy="54.5" rx="54" ry="54.5"></ellipse>
                    <mask id="mask-3" sketch:name="Path 11" fill="white">
                        <use xlink:href="#path-2"></use>
                    </mask>
                    <use id="Path-11" sketch:type="MSShapeGroup" xlink:href="#path-2"></use>
                    <ellipse id="shadow-3" opacity="0.507346082" fill="#650000" filter="url(#filter-4)" sketch:type="MSShapeGroup" mask="url(#mask-3)" cx="54" cy="54.5" rx="54" ry="54.5"></ellipse>
                    <path d="M76,39 L67,39 L67,35 L76,35 L76,26 L80,26 L80,35 L89,35 L89,39 L80,39 L80,48 L76,48 L76,39 Z M54.4785686,50.2030301 C60.6409246,47.0520976 64.11316,40.6137561 62.4718503,34.4883048 C61.7652294,31.8511597 60.2087978,29.6376873 58.1136766,28 L58.1136766,28 L61.5407055,28 L66,25 L50.7920916,25 C48.622015,24.7106777 46.3140279,24.8415518 44.0059429,25.4600013 C35.7372183,27.6755994 30.5984352,35.3099028 32.5281497,42.5116952 C34.0831283,48.3149542 39.7533744,52.0665491 46.2234316,52.1454955 C45.9271286,52.9161096 45.8421352,54.1743501 46.4974889,56.2068483 C47.3745902,58.9270691 50.7012063,60.6259259 53.8944541,62.8396676 C50.8015453,61.8835686 47.1497635,61.5799396 43.3299228,62.1167832 C33.4855436,63.5003204 26.2528166,69.9421964 27.1751748,76.5051158 C28.0975329,83.0680352 36.8256981,87.2667541 46.6700772,85.8832168 C56.0859785,84.5598982 63.1126251,78.6089879 62.8993717,72.3507449 C64.1358857,71.6822724 65.1787032,70.9739149 64.9742526,70.56978 C64.9742526,61.6749526 60.022649,59.7325368 54.6415547,55.469678 C51.2764295,51.477488 56.3526538,50 56.3526538,50 L54.4785686,50.2030301 L54.4785686,50.2030301 Z M51.7534776,50.4982544 C55.4795365,49.1649372 57.2626002,43.7246943 55.7444437,38.0588572 C54.1720838,32.19073 49.6539863,28.3027523 45.6529905,29.3748159 C41.6519947,30.4468795 39.6831964,36.0730157 41.2555563,41.9411428 C42.5660074,46.8318131 45.9225818,50.3470622 49.3206277,50.7618186 L51.7534776,50.4982544 L51.7534776,50.4982544 Z M59.9554254,73.7654552 C59.4158982,78.3777423 54.0454655,82 47.5,82 C40.5964406,82 35,77.9705627 35,73 C35,68.0294373 40.5964406,64 47.5,64 C53.677617,64 58.8085614,67.2265636 59.819339,71.4667751 C59.7771642,72.9417888 59.408575,74 59.408575,74 C59.408575,74 59.6178497,73.9130028 59.9554254,73.7654552 L59.9554254,73.7654552 Z" id="Oval-16" fill="#FFFFFF" sketch:type="MSShapeGroup"></path>
                </g>
            </g>
        </g>
    </g>
</svg>